<?xml version="1.0" encoding="utf-8"?>
<!-- Generator: Adobe Illustrator 22.1.0, SVG Export Plug-In . SVG Version: 6.00 Build 0)  -->
<svg version="1.1" id="Layer_1" xmlns="http://www.w3.org/2000/svg" xmlns:xlink="http://www.w3.org/1999/xlink" x="0px" y="0px"
	 viewBox="0 0 253.9 179.21" style="enable-background:new 0 0 253.9 179.21;" xml:space="preserve">
<style type="text/css">
	.st0{fill:#FF730B;}
	.st1{fill:#FFFFFF;}
</style>
<title>SB_Logo_Vertical_CLR_RGB</title>
<g>
	<path class="st0" d="M144.95,115.16h-38l-6.75,20.79h51.55L144.95,115.16z M246.95,135.95l-20-61.43l13-39.68L191.95,0
		l-33.74,24.54H93.65L59.88,0L11.95,34.84l12.87,39.68l-20,61.43h63l-4.87-15.07l63-45.76l63,45.76l-4.89,15.07h63H246.95z
		 M106.95,115.16l-6.75,20.79h51.55l-6.8-20.79H106.95z M145,115.16h-38.05l-6.75,20.79h51.55L145,115.16z"/>
	<g>
		<path class="st1" d="M16.81,156.3c0,0-5.4-0.62-7.64-0.62c-3.24,0-4.9,1.16-4.9,3.43c0,2.47,1.39,3,5.9,4.28
			c5.55,1.54,7.56,3,7.56,7.52c0,5.78-3.62,8.29-8.83,8.29c-2.902-0.11-5.79-0.444-8.64-1l0.42-3.43c0,0,5.21,0.69,7.94,0.69
			c3.28,0,4.78-1.47,4.78-4.24c0-2.24-1.2-3-5.24-4c-5.69-1.48-8.21-3.21-8.21-7.8c0-5.32,3.51-7.52,8.79-7.52
			c2.808,0.105,5.606,0.413,8.37,0.92L16.81,156.3z"/>
		<path class="st1" d="M28.01,152.36h7.44l5.9,20.63l5.9-20.63h7.48v26.42h-4.32v-22.83h-0.22l-6.6,21.75h-4.48l-6.6-21.75h-0.22
			v22.83h-4.28V152.36z"/>
		<path class="st1" d="M121.03,152.36h19.28v3.82h-7.44v22.6h-4.32v-22.6h-7.52C121.03,156.18,121.03,152.36,121.03,152.36z"/>
		<path class="st1" d="M158.95,152.36c5.24,0,8.06,2,8.06,6.86c0,3.2-1,4.78-3.12,5.94c2.28,0.89,3.78,2.51,3.78,6.13
			c0,5.4-3.28,7.48-8.41,7.48h-10.31v-26.41H158.95z M153.2,156.06v7.54h5.67c2.62,0,3.78-1.31,3.78-3.9s-1.31-3.66-3.93-3.66h-5.52
			V156.06z M153.2,167.24v7.83h5.82c2.66,0,4.24-0.85,4.24-4c0-3-2.24-3.82-4.32-3.82h-5.75L153.2,167.24z"/>
		<path class="st1" d="M178.27,152.36h16.68v3.74h-12.4v7.5h10.07v3.66h-10.07v7.75h12.4v3.78h-16.68V152.36z"/>
		<path class="st1" d="M210.28,152.36h8.52l6.56,26.42h-4.32l-2-7.75h-9.09l-2,7.75h-4.28L210.28,152.36z M210.85,167.25h7.41
			l-2.73-11.3h-1.93L210.85,167.25z"/>
		<path class="st1" d="M239.17,170.95v7.83h-4.28v-26.42h10c5.82,0,8.95,3.34,8.95,9.2c0,3.74-1.5,7.12-4.32,8.43l4.36,8.79h-4.71
			l-3.82-7.83h-6.21L239.17,170.95z M244.95,156.06h-5.75v11.18h5.75c3.24,0,4.47-2.91,4.47-5.65
			C249.46,158.6,247.95,156.06,244.95,156.06z"/>
		<path class="st1" d="M70.59,152.36h8.52l6.56,26.42h-4.33l-2-7.75h-9.1l-2,7.75h-4.17L70.59,152.36z M71.16,167.25h7.41
			l-2.73-11.3h-1.89L71.16,167.25z"/>
		<path class="st1" d="M99.47,170.95v7.83h-4.28v-26.42h10c5.82,0,8.95,3.34,8.95,9.2c0,3.74-1.5,7.12-4.32,8.43l4.36,8.79h-4.71
			l-3.82-7.83h-6.21L99.47,170.95z M105.22,156.06h-5.75v11.18h5.82c3.24,0,4.47-2.91,4.47-5.65
			C109.77,158.6,108.3,156.06,105.22,156.06z"/>
	</g>
</g>
</svg>
