<svg xmlns="http://www.w3.org/2000/svg" xmlns:xlink="http://www.w3.org/1999/xlink" viewBox="0 0 393 95">
  <defs>
    <style>
      .cls-1 {
        clip-path: url(#clip-AlertSite-01-UXM-Header-upd);
      }

      .cls-2 {
        fill: #fff;
      }

      .cls-3 {
        fill: #50e4ea;
      }

      .cls-4 {
        fill: #05263a;
      }
    </style>
    <clipPath id="clip-AlertSite-01-UXM-Header-upd">
      <rect width="393" height="95"/>
    </clipPath>
  </defs>
  <g id="AlertSite-01-UXM-Header-upd" class="cls-1">
    <path id="Path_2565" data-name="Path 2565" class="cls-2" d="M37.188,0,31.145-15.439H11.688L5.711,0H0L19.191-48.742h4.748L43.031,0Zm-7.8-20.52L23.74-35.561q-1.1-2.855-2.258-7.006a62.911,62.911,0,0,1-2.092,7.006L13.68-20.52ZM54.387,0H48.875V-51.664h5.512ZM81.447.664q-8.068,0-12.733-4.914T64.049-17.9q0-8.8,4.333-13.979a14.393,14.393,0,0,1,11.638-5.18q6.84,0,10.824,4.5t3.984,11.87V-17.2H69.76Q69.926-10.791,73-7.471t8.649,3.32A29.311,29.311,0,0,0,93.268-6.607v4.914A29.168,29.168,0,0,1,87.739.116,31.068,31.068,0,0,1,81.447.664Zm-1.494-33.1a9,9,0,0,0-6.989,2.855,13.162,13.162,0,0,0-3.071,7.9H88.918q0-5.213-2.324-7.985A8.181,8.181,0,0,0,79.953-32.439Zm40.873-4.615a21.567,21.567,0,0,1,4.35.4l-.764,5.113a18.775,18.775,0,0,0-3.984-.5,9.7,9.7,0,0,0-7.554,3.586,13.076,13.076,0,0,0-3.138,8.932V0h-5.512V-36.391h4.549l.631,6.74h.266a16,16,0,0,1,4.881-5.479A10.987,10.987,0,0,1,120.826-37.055Zm22.91,33.17a18,18,0,0,0,2.822-.216,18.269,18.269,0,0,0,2.158-.448V-.332a10.076,10.076,0,0,1-2.64.714,19.823,19.823,0,0,1-3.138.282q-10.559,0-10.559-11.123V-32.107h-5.213v-2.656l5.213-2.291,2.324-7.77h3.188v8.434h10.559v4.283H137.893v21.416a7.367,7.367,0,0,0,1.561,5.047A5.431,5.431,0,0,0,143.736-3.885Zm40.475-9.031a11.907,11.907,0,0,1-4.648,9.994Q174.914.664,166.945.664q-8.633,0-13.281-2.225V-7.006a34.966,34.966,0,0,0,6.508,1.992,34.24,34.24,0,0,0,6.973.73q5.645,0,8.5-2.142a7.028,7.028,0,0,0,2.855-5.96,7.65,7.65,0,0,0-1.013-4.134A9.408,9.408,0,0,0,174.1-19.49a47.38,47.38,0,0,0-7.222-3.088Q160.105-25,157.2-28.322a12.682,12.682,0,0,1-2.905-8.666,10.778,10.778,0,0,1,4.217-8.932q4.217-3.32,11.156-3.32a32.878,32.878,0,0,1,13.314,2.656l-1.76,4.914a30.09,30.09,0,0,0-11.687-2.523,11.311,11.311,0,0,0-7.006,1.926,6.346,6.346,0,0,0-2.523,5.346,8.193,8.193,0,0,0,.93,4.134,8.753,8.753,0,0,0,3.138,2.955,38.985,38.985,0,0,0,6.757,2.972q7.637,2.723,10.509,5.844A11.494,11.494,0,0,1,184.211-12.916ZM198.82,0h-5.512V-36.391h5.512Zm-5.977-46.252a3.661,3.661,0,0,1,.93-2.772,3.249,3.249,0,0,1,2.324-.88,3.247,3.247,0,0,1,2.291.9,3.6,3.6,0,0,1,.963,2.756,3.651,3.651,0,0,1-.963,2.772,3.215,3.215,0,0,1-2.291.913,3.184,3.184,0,0,1-2.324-.913A3.729,3.729,0,0,1,192.844-46.252ZM222.262-3.885a18,18,0,0,0,2.822-.216,18.269,18.269,0,0,0,2.158-.448V-.332a10.076,10.076,0,0,1-2.64.714,19.823,19.823,0,0,1-3.138.282q-10.559,0-10.559-11.123V-32.107h-5.213v-2.656l5.213-2.291,2.324-7.77h3.188v8.434h10.559v4.283H216.418v21.416a7.367,7.367,0,0,0,1.561,5.047A5.431,5.431,0,0,0,222.262-3.885ZM249.887.664q-8.068,0-12.733-4.914T232.488-17.9q0-8.8,4.333-13.979a14.393,14.393,0,0,1,11.638-5.18q6.84,0,10.824,4.5t3.984,11.87V-17.2H238.2q.166,6.408,3.237,9.729t8.649,3.32a29.311,29.311,0,0,0,11.621-2.457v4.914a29.167,29.167,0,0,1-5.528,1.81A31.068,31.068,0,0,1,249.887.664Zm-1.494-33.1a9,9,0,0,0-6.989,2.855,13.162,13.162,0,0,0-3.071,7.9h19.025q0-5.213-2.324-7.985A8.181,8.181,0,0,0,248.393-32.439Z" transform="translate(117.049 90.16)"/>
    <g id="Group_2314" data-name="Group 2314" transform="translate(-0.897 -1235.911)">
      <g id="Group_2313" data-name="Group 2313">
        <g id="Group_2312" data-name="Group 2312">
          <path id="Path_2529" data-name="Path 2529" class="cls-2" d="M135.98,1244.112s-4.395-.5-6.215-.5c-2.637,0-3.987.942-3.987,2.794,0,2.009,1.131,2.479,4.8,3.484,4.52,1.255,6.152,2.448,6.152,6.121,0,4.708-2.95,6.748-7.188,6.748a45.788,45.788,0,0,1-7.031-.847l.346-2.794s4.237.565,6.466.565c2.667,0,3.891-1.193,3.891-3.453,0-1.821-.972-2.448-4.269-3.233-4.645-1.192-6.654-2.6-6.654-6.34,0-4.332,2.857-6.121,7.157-6.121a47.624,47.624,0,0,1,6.811.753Z"/>
          <path id="Path_2530" data-name="Path 2530" class="cls-2" d="M145.09,1240.911h6.059l4.8,16.793,4.8-16.793h6.089v21.5h-3.515v-18.583h-.185l-5.371,17.7h-3.641l-5.371-17.7h-.185v18.583H145.09Z"/>
          <path id="Path_2531" data-name="Path 2531" class="cls-2" d="M220.807,1240.911H236.5v3.107h-6.058v18.394h-3.515v-18.394h-6.121Z"/>
          <path id="Path_2532" data-name="Path 2532" class="cls-2" d="M251.663,1240.911c4.269,0,6.56,1.6,6.56,5.587,0,2.6-.816,3.892-2.542,4.834,1.851.721,3.076,2.039,3.076,4.99,0,4.4-2.668,6.09-6.843,6.09H243.5v-21.5Zm-4.677,3.013v6.152H251.6c2.135,0,3.076-1.067,3.076-3.171,0-2.071-1.067-2.981-3.2-2.981Zm0,9.1v6.372h4.74c2.165,0,3.452-.69,3.452-3.265,0-2.448-1.82-3.107-3.515-3.107Z"/>
          <path id="Path_2533" data-name="Path 2533" class="cls-2" d="M267.394,1240.911h13.56v3.045H270.878v6.088h8.193v2.983h-8.193v6.309h10.076v3.076h-13.56Z"/>
          <path id="Path_2534" data-name="Path 2534" class="cls-2" d="M293.448,1240.911h6.937l5.336,21.5H302.2l-1.587-6.309h-7.4l-1.588,6.309h-3.484Zm.463,12.116h6.032l-2.226-9.2h-1.569Z"/>
          <path id="Path_2535" data-name="Path 2535" class="cls-2" d="M316.96,1256.04v6.372h-3.484v-21.5h8.162c4.739,0,7.282,2.715,7.282,7.486,0,3.045-1.224,5.791-3.516,6.858l3.548,7.157h-3.83l-3.108-6.372Zm4.678-12.116H316.96v9.1H321.7c2.636,0,3.64-2.37,3.64-4.6C325.341,1245.98,324.149,1243.924,321.638,1243.924Z"/>
          <path id="Path_2536" data-name="Path 2536" class="cls-2" d="M179.746,1240.911h6.937l5.336,21.5H188.5l-1.587-6.309h-7.4l-1.588,6.309h-3.484Zm.463,12.116h6.032l-2.226-9.2h-1.569Z"/>
          <path id="Path_2537" data-name="Path 2537" class="cls-2" d="M203.258,1256.04v6.372h-3.484v-21.5h8.162c4.739,0,7.282,2.715,7.282,7.486,0,3.045-1.225,5.791-3.516,6.858l3.548,7.157h-3.83l-3.108-6.372Zm4.678-12.116h-4.678v9.1H208c2.636,0,3.64-2.37,3.64-4.6C211.639,1245.98,210.447,1243.924,207.936,1243.924Z"/>
        </g>
      </g>
    </g>
    <path id="Path_2567" data-name="Path 2567" class="cls-2" d="M3.035,4.837a1.078,1.078,0,0,1-.413.9,1.8,1.8,0,0,1-1.14.325A2.719,2.719,0,0,1,.293,5.833V5.171a3.233,3.233,0,0,0,.623.217,2.64,2.64,0,0,0,.614.079.976.976,0,0,0,.614-.158.516.516,0,0,0,.2-.425.532.532,0,0,0-.182-.407,2.735,2.735,0,0,0-.75-.4,1.984,1.984,0,0,1-.826-.542,1.147,1.147,0,0,1-.24-.732,1.026,1.026,0,0,1,.381-.844,1.58,1.58,0,0,1,1.022-.308,3,3,0,0,1,1.225.27L2.748,2.5a2.676,2.676,0,0,0-1.02-.24.782.782,0,0,0-.516.148.486.486,0,0,0-.176.391.551.551,0,0,0,.07.286.718.718,0,0,0,.231.224,3.915,3.915,0,0,0,.58.278,3.174,3.174,0,0,1,.691.366,1.077,1.077,0,0,1,.322.384A1.154,1.154,0,0,1,3.035,4.837ZM6.016,6,4.774,2.423H4.75q.05.8.05,1.494V6H4.164V1.717h.987L6.341,5.124h.018L7.583,1.717h.99V6H7.9V3.882q0-.319.016-.832t.028-.621H7.92L6.634,6Z" transform="translate(382.311 84.386)"/>
    <g id="Group_2329" data-name="Group 2329" transform="translate(-0.897 -740.935)">
      <g id="Group_2328" data-name="Group 2328" transform="translate(0.897 740.935)">
        <g id="Group_2325" data-name="Group 2325">
          <g id="Group_2323" data-name="Group 2323" transform="translate(2.498 2.498)">
            <rect id="Rectangle_148" data-name="Rectangle 148" class="cls-3" width="90.004" height="90.004"/>
          </g>
        </g>
        <g id="Group_2327" data-name="Group 2327" transform="translate(18.662 14.86)">
          <g id="Group_2326" data-name="Group 2326">
            <path id="Path_2563" data-name="Path 2563" class="cls-4" d="M57.615,817.942l-5.208-3.668H48.643L44.5,817.131l-2.834-4.112,5.426-3.74h6.9l4.265,3.005,4.754-1.945.943-5.128,4.9-4.879,5.142-.888,1.981-4.738L73,790.4l.023-6.888,2.992-4.283-1.958-4.748-5.125-.94-4.855-4.889-.912-5.151-4.743-1.983-4.3,2.972-6.891-.023-4.277-2.99-4.747,1.943-.948,5.139-4.887,4.855-5.152.912-1.981,4.738,2.979,4.283-.033,6.912-3.77,5.392-4.094-2.861,2.876-4.114.018-3.773-3.642-5.237,4.091-9.785,6.3-1.115,2.669-2.65,1.159-6.288,9.795-4.009,5.228,3.656,3.76.013,5.257-3.633,9.778,4.088,1.116,6.3,2.65,2.667,6.264,1.15,4.037,9.792-3.662,5.242L78,788.849l3.629,5.265-4.09,9.785-6.287,1.085-2.673,2.662-1.156,6.28Z" transform="translate(-19.577 -755.815)"/>
          </g>
        </g>
        <path id="Path_2564" data-name="Path 2564" class="cls-4" d="M50.6,769.949a16.917,16.917,0,0,0-13.841,26.68L33.3,800.091l-2.828-2.828L15.824,811.906a6.5,6.5,0,0,0,9.189,9.188l14.644-14.643-2.828-2.828,3.378-3.379A16.933,16.933,0,1,0,50.6,769.949ZM21.482,817.562a1.5,1.5,0,0,1-2.126-2.125l11.112-11.111,2.125,2.124ZM50.6,798.838a11.947,11.947,0,1,1,11.947-11.947A11.96,11.96,0,0,1,50.6,798.838Z" transform="translate(-0.909 -740.975)"/>
      </g>
    </g>
  </g>
</svg>
