<?xml version="1.0" encoding="utf-8"?>
<!-- Generator: Adobe Illustrator 22.0.1, SVG Export Plug-In . SVG Version: 6.00 Build 0)  -->
<svg version="1.1" id="Layer_1" xmlns="http://www.w3.org/2000/svg" xmlns:xlink="http://www.w3.org/1999/xlink" x="0px" y="0px"
	 viewBox="0 0 612 222.2" style="enable-background:new 0 0 612 222.2;" xml:space="preserve">
<style type="text/css">
	.st0{fill:#FFFFFF;}
</style>
<g>
	<g>
		<path class="st0" d="M202,203.6c-3.4,0-7.5-0.7-10.9-1.9c-0.8-0.3-1.1-0.6-1.1-1.1c0-0.3,0.1-0.6,0.2-0.9l1.4-4.2
			c0.2-0.5,0.4-1,1.1-1c0.3,0,0.5,0.1,0.9,0.2c2.6,1,5.5,1.6,8.1,1.6c2.2,0,5-1.1,5-3.7c0-2-1.6-3-3.2-3.7l-7-3.2
			c-3.9-1.8-6.4-5-6.4-9.4c0-6.7,6.7-10.4,12.8-10.4c3.8,0,7,0.7,10.3,2.1c0.8,0.4,1.1,0.7,1.1,1.2c0,0.2-0.1,0.5-0.2,0.8l-1.6,4.1
			c-0.3,0.7-0.6,0.9-1,0.9c-0.3,0-0.6-0.1-0.9-0.3c-2.1-0.9-5-1.7-7.1-1.7c-2.1,0-4.4,0.8-4.4,3.2c0,1.7,2.1,2.7,3.4,3.3l6,2.7
			c4.1,1.9,6.8,4.7,6.8,9.4C215.2,199.3,209.2,203.6,202,203.6z"/>
		<path class="st0" d="M253.6,202.9c-1.4,0-1.7-0.7-1.7-2.1l-0.6-17.9h-0.1l-7.9,18.9c-0.4,1-1.1,1.1-1.8,1.1h-1.9
			c-1,0-1.6-0.2-2.1-1.2l-9-18.8h-0.1l-0.3,18.4c0,1.5-0.7,1.6-1.8,1.6h-4.3c-1.3,0-1.8-0.5-1.8-1.7l1.4-32.8
			c0.1-1.3,0.6-1.7,1.6-1.7h3.8c1.2,0,1.7,0.4,2.1,1.4l11.5,23.6h0.1l10.4-23.6c0.4-0.9,1-1.4,2.1-1.4h3.6c1,0,1.4,0.4,1.5,1.3
			l1.7,33.2c0.1,1-0.4,1.6-1.4,1.6H253.6z"/>
		<path class="st0" d="M299,202.9h-5.8c-1.3,0-1.7-0.6-2-1.5l-2.1-6h-12.9l-2.1,6.3c-0.2,0.7-0.6,1.3-1.6,1.3h-5.9
			c-0.6,0-0.8-0.4-0.8-0.8c0-0.2,0-0.4,0.1-0.6l12.4-33.4c0.3-0.8,0.8-1.3,1.8-1.3h5.4c1,0,1.6,0.5,1.9,1.1l12.7,33.2
			c0.1,0.3,0.2,0.6,0.2,0.8C300,202.5,299.7,202.9,299,202.9z M286.8,189.2l-3.3-10.3c-0.4-1.1-0.7-2.1-0.9-3h-0.1
			c-0.3,0.9-0.6,2-0.9,3.1l-3.3,10.2H286.8z"/>
		<path class="st0" d="M324,201.8l-7.2-11.1h-3.2v10.8c0,0.8-0.4,1.5-1.4,1.5h-5.4c-1,0-1.5-0.5-1.5-1.5v-32.9
			c0-1.4,0.3-1.8,1.7-1.8h7.9c4.4,0,9.7,0.4,12.9,3.9c1.9,2.1,2.8,5,2.8,7.8c0,4.6-2,8.5-6.2,10.6v0.1l8.5,12.2
			c0.2,0.3,0.3,0.6,0.3,0.9c0,0.5-0.4,0.7-0.8,0.7h-6.1C325.3,202.9,324.5,202.7,324,201.8z M315.5,173h-2v11.5h2.6
			c3.8,0,6.1-2,6.1-5.9C322.2,174.5,319.4,173,315.5,173z"/>
		<path class="st0" d="M364,168.1l-0.4,4.1c-0.1,1-0.8,1.3-1.9,1.3h-9.2v28.1c0,1.1-0.2,1.4-1.2,1.4h-5.9c-1.1,0-1.2-0.2-1.2-1.3
			v-28.2h-9.5c-1,0-1.5-0.5-1.5-1.6v-3.9c0-0.9,0.5-1.3,1.4-1.3h28C363.7,166.8,364.1,167.3,364,168.1z"/>
		<path class="st0" d="M381,202.9h-10.4c-1.3,0-1.6-0.5-1.6-1.8v-32.8c0-1.3,0.5-1.5,1.7-1.5h8.4c9.3,0,13.8,2.7,13.8,8.9
			c0,3.5-2,6.7-5.6,7.5v0.1c4.9,0.5,8.4,3.9,8.4,9.1C395.8,200.9,388.5,202.9,381,202.9z M379.7,173h-2.6v8.1h2
			c3.9,0,5.7-1.1,5.7-4.4C384.8,174.3,382.9,173,379.7,173z M384.8,187.5c-1.5-0.7-3-0.7-5.1-0.7c-0.6,0-1.8,0.1-2.6,0.1v9.7h3.2
			c1.6,0,3.1-0.1,4.3-0.5c1.6-0.6,2.7-2.1,2.7-4.2C387.4,189.7,386.3,188.2,384.8,187.5z"/>
		<path class="st0" d="M422.1,166.8c1,0,1.4,0.5,1.3,1.2l-0.5,4.2c-0.1,1.1-0.8,1.3-2,1.3h-12.6v7.8h11.8c1.1,0,1.6,0.6,1.6,1.4v3.8
			c0,1-0.5,1.5-1.5,1.5h-11.9v8.2h13.6c0.9,0,1.5,0.4,1.5,1.4v3.9c0,1-0.5,1.5-1.5,1.5h-20.2c-1.2,0-1.7-0.3-1.7-1.6v-33.1
			c0-0.9,0.5-1.5,1.4-1.5H422.1z"/>
		<path class="st0" d="M460.6,202.9h-5.8c-1.2,0-1.7-0.6-2-1.5l-2.1-6h-12.9l-2.1,6.3c-0.2,0.7-0.6,1.3-1.6,1.3h-5.9
			c-0.6,0-0.8-0.4-0.8-0.8c0-0.2,0-0.4,0.1-0.6l12.4-33.4c0.3-0.8,0.8-1.3,1.8-1.3h5.4c1,0,1.6,0.5,1.9,1.1l12.7,33.2
			c0.1,0.3,0.2,0.6,0.2,0.8C461.7,202.5,461.4,202.9,460.6,202.9z M448.4,189.2l-3.3-10.3c-0.4-1.1-0.7-2.1-0.9-3h-0.1
			c-0.3,0.9-0.6,2-0.9,3.1l-3.3,10.2H448.4z"/>
		<path class="st0" d="M484.8,201.8l-7.2-11.1h-3.2v10.8c0,0.8-0.4,1.5-1.4,1.5h-5.4c-1,0-1.5-0.5-1.5-1.5v-32.9
			c0-1.4,0.3-1.8,1.7-1.8h7.9c4.4,0,9.7,0.4,12.9,3.9c1.9,2.1,2.8,5,2.8,7.8c0,4.6-2,8.5-6.2,10.6v0.1l8.5,12.2
			c0.2,0.3,0.3,0.6,0.3,0.9c0,0.5-0.4,0.7-0.8,0.7h-6.1C486.2,202.9,485.4,202.7,484.8,201.8z M476.4,173h-2v11.5h2.6
			c3.8,0,6.1-2,6.1-5.9C483.1,174.5,480.3,173,476.4,173z"/>
	</g>
</g>
<g>
	<g>
		<path class="st0" d="M258.1,124.3h-12.4c-2.7,0-3.7-1.2-4.3-3.1l-4.4-12.9h-27.4l-4.4,13.3c-0.4,1.4-1.3,2.7-3.3,2.7h-12.6
			c-1.2,0-1.8-0.8-1.8-1.8c0-0.4,0-0.9,0.2-1.3l26.4-71c0.7-1.7,1.7-2.8,3.8-2.8h11.4c2.2,0,3.4,1,4,2.4l26.9,70.6
			c0.2,0.7,0.3,1.2,0.3,1.7C260.4,123.4,259.7,124.3,258.1,124.3z M232.2,95.1l-7-21.8c-0.8-2.4-1.4-4.5-2-6.4H223
			c-0.6,2-1.2,4.2-2,6.5l-7,21.7H232.2z"/>
		<path class="st0" d="M281.6,121.2c0,2.1-1.1,3.1-2.9,3.1H268c-1.7,0-3-0.9-3-3V49.4c0-2.2,1-2.9,2.7-3.1l11.6-1.4
			c1.6,0,2.3,1,2.3,2.8V121.2z"/>
		<path class="st0" d="M341.3,98.5c0,2.7-1.2,3.2-4,3.2h-31c1.3,7,7.5,10.9,14.3,10.9c4.9,0,9.5-1.1,14-2.9c0.4-0.2,0.9-0.3,1.3-0.3
			c1,0,1.6,0.7,1.8,1.6c0.4,1.9,2.1,7,2.1,8.6c0,1.4-1,1.9-2.1,2.4c-5.9,2.7-13.6,3.8-20.1,3.8c-17.6,0-28.8-10.9-28.8-28.6
			c0-17.2,11.6-28.5,28.7-28.5c7.1,0,13.1,2.7,17.2,7.1c5.5,5.9,6.6,13.5,6.6,21.3V98.5z M325,91.2c0-4.8-2.8-9.6-8.5-9.6
			c-5.5,0-9.2,4.4-10,9.6H325z"/>
		<path class="st0" d="M364.5,88.1v33.1c0,2-0.9,3.1-3.1,3.1H351c-2,0-3.1-1-3.1-3.1V73.6c0-2.7,1.3-3.2,3.2-3.2h9
			c2.1,0,3.1,0.6,3.2,2.2l0.2,3.3c4-4.8,7.3-7.1,13.9-7.1c0.9,0,2.1,0.2,3.1,0.4c1.4,0.3,1.4,1.4,1.2,2.7L380,82.3
			c-0.2,1.2-0.8,1.8-1.8,1.8c-1.1,0-1.7-0.3-3.5-0.3C371,83.8,367.3,85.3,364.5,88.1z"/>
		<path class="st0" d="M423.1,122.9c-4.2,1.9-9.1,2.9-14.2,2.9c-6.2,0-11.2-1.4-14.2-5c-3.5-4.2-3.8-8.8-3.8-17.8V81.7h-4.4
			c-2.7,0-3.1-0.7-3.1-3.7v-4.8c0-1.6,0.9-2.9,2.5-2.9h5.1V58.7c0-2.2,1.4-2.7,3.4-2.9l10.6-1.3c1.7,0,2.4,0.9,2.4,2.9v13h12.1
			c1.6,0,2.7,0.7,2.7,2.3v6.4c0,1.7-1.1,2.5-2.7,2.5h-12.1v21.6c0,5.8,0.8,9.3,5.7,9.3c2.8,0,4.9-0.7,7.1-1.3
			c0.7-0.2,1.1-0.3,1.6-0.3c0.9,0,1.3,0.6,1.6,1.6l1.3,7.1c0.1,0.3,0.1,0.7,0.1,1C424.9,121.8,424.3,122.3,423.1,122.9z"/>
		<path class="st0" d="M454.2,125.9c-7.2,0-16-1.4-23.2-4c-1.8-0.6-2.3-1.3-2.3-2.3c0-0.6,0.2-1.2,0.4-1.9l3-9
			c0.3-1.1,0.9-2.1,2.3-2.1c0.6,0,1.1,0.1,1.9,0.4c5.4,2.1,11.6,3.4,17.3,3.4c4.7,0,10.5-2.4,10.5-7.9c0-4.2-3.3-6.3-6.8-7.9
			l-14.8-6.9c-8.2-3.8-13.6-10.6-13.6-19.9c0-14.2,14.2-22.2,27.1-22.2c8,0,14.8,1.4,21.8,4.4c1.8,0.8,2.4,1.6,2.4,2.5
			c0,0.4-0.2,1-0.4,1.7l-3.4,8.6c-0.6,1.4-1.2,2-2.2,2c-0.6,0-1.2-0.2-2-0.6c-4.5-2-10.5-3.5-15.1-3.5c-4.4,0-9.4,1.7-9.4,6.9
			c0,3.5,4.4,5.8,7.2,7l12.7,5.8c8.8,4,14.4,10,14.4,20.1C482.2,116.6,469.4,125.9,454.2,125.9z"/>
		<path class="st0" d="M499.5,63.9c-4.2,0-9-3-9-8.3c0-5.4,4.4-8.5,9-8.5c4.4,0,8.9,3.1,8.9,8.4C508.3,60.8,503.7,63.9,499.5,63.9z
			 M507.9,121.1c0,2.2-1,3.2-3.2,3.2h-10c-2.3,0-3.4-0.8-3.4-3.2V73.2c0-2.2,1.4-2.9,3.4-2.9h10c2.1,0,3.2,0.6,3.2,2.9V121.1z"/>
		<path class="st0" d="M553.6,122.9c-4.2,1.9-9.1,2.9-14.2,2.9c-6.2,0-11.2-1.4-14.2-5c-3.5-4.2-3.8-8.8-3.8-17.8V81.7h-4.4
			c-2.7,0-3.1-0.7-3.1-3.7v-4.8c0-1.6,0.9-2.9,2.5-2.9h5.1V58.7c0-2.2,1.4-2.7,3.4-2.9l10.6-1.3c1.7,0,2.4,0.9,2.4,2.9v13h12.1
			c1.6,0,2.7,0.7,2.7,2.3v6.4c0,1.7-1.1,2.5-2.7,2.5h-12.1v21.6c0,5.8,0.8,9.3,5.7,9.3c2.8,0,4.9-0.7,7.1-1.3
			c0.7-0.2,1.1-0.3,1.6-0.3c0.9,0,1.3,0.6,1.6,1.6l1.3,7.1c0.1,0.3,0.1,0.7,0.1,1C555.4,121.8,554.9,122.3,553.6,122.9z"/>
		<path class="st0" d="M609.6,98.5c0,2.7-1.2,3.2-4,3.2h-31c1.3,7,7.5,10.9,14.3,10.9c4.9,0,9.5-1.1,14-2.9c0.4-0.2,0.9-0.3,1.3-0.3
			c1,0,1.6,0.7,1.8,1.6c0.4,1.9,2.1,7,2.1,8.6c0,1.4-1,1.9-2.1,2.4c-5.9,2.7-13.6,3.8-20.1,3.8c-17.6,0-28.8-10.9-28.8-28.6
			c0-17.2,11.6-28.5,28.7-28.5c7.1,0,13.1,2.7,17.2,7.1c5.5,5.9,6.6,13.5,6.6,21.3V98.5z M593.3,91.2c0-4.8-2.8-9.6-8.5-9.6
			c-5.5,0-9.2,4.4-10,9.6H593.3z"/>
	</g>
</g>
<g>
	<path class="st0" d="M73.7,35.8h-0.4c-1,3.5-2.1,7.4-3.5,11.5L57.5,85.5h32L77.2,47.1C75.9,42.8,74.7,39.1,73.7,35.8z"/>
	<path class="st0" d="M5.5,75.8c-4.7,4.7-4.7,12.3,0,17l14.6,14.6l27.3-73.5L5.5,75.8z"/>
	<path class="st0" d="M49.7,108.9l-7,21.1l23.6,23.6c4.7,4.7,12.3,4.7,17,0l22.4-22.4l-7.7-22.3H49.7z"/>
	<path class="st0" d="M144.1,75.8l-42.3-42.3l28,73.5l14.2-14.2C148.7,88.1,148.7,80.5,144.1,75.8z"/>
</g>
</svg>
